<svg width="58" height="58" viewBox="0 0 58 58" fill="none" xmlns="http://www.w3.org/2000/svg">
<g clip-path="url(#clip0_3_158)">
<path d="M35.1142 18.1975C35.4343 17.8539 35.6086 17.3995 35.6003 16.9299C35.5921 16.4603 35.4018 16.0123 35.0698 15.6802C34.7377 15.3482 34.2897 15.1579 33.8201 15.1497C33.3505 15.1414 32.8961 15.3157 32.5525 15.6358L20.4692 27.7192C20.3007 27.8875 20.1671 28.0873 20.076 28.3073C19.9848 28.5273 19.9379 28.7631 19.9379 29.0012C19.9379 29.2393 19.9848 29.4751 20.076 29.6951C20.1671 29.9151 20.3007 30.1149 20.4692 30.2832L32.5525 42.3666C32.8945 42.6966 33.3524 42.8791 33.8277 42.8747C34.3029 42.8704 34.7574 42.6795 35.0933 42.3433C35.4292 42.0071 35.6196 41.5524 35.6235 41.0772C35.6274 40.6019 35.4445 40.1442 35.1142 39.8025L24.3117 29L35.1142 18.1975Z" fill="#141124"/>
</g>
<defs>
<clipPath id="clip0_3_158">
<rect width="58" height="58" fill="white"/>
</clipPath>
</defs>
</svg>
