<svg width="58" height="58" viewBox="0 0 58 58" fill="none" xmlns="http://www.w3.org/2000/svg">
<g clip-path="url(#clip0_3_199)">
<path d="M22.8859 39.8025C22.5657 40.1461 22.3914 40.6005 22.3997 41.0701C22.408 41.5397 22.5982 41.9877 22.9303 42.3198C23.2624 42.6518 23.7104 42.8421 24.1799 42.8503C24.6495 42.8586 25.1039 42.6843 25.4475 42.3642L37.5309 30.2808C37.6993 30.1125 37.8329 29.9127 37.9241 29.6927C38.0152 29.4727 38.0621 29.2369 38.0621 28.9988C38.0621 28.7607 38.0152 28.5249 37.9241 28.3049C37.8329 28.0849 37.6993 27.8851 37.5309 27.7168L25.4475 15.6334C25.1055 15.3034 24.6476 15.1209 24.1724 15.1253C23.6971 15.1296 23.2426 15.3205 22.9067 15.6567C22.5708 15.9929 22.3804 16.4476 22.3765 16.9228C22.3726 17.3981 22.5555 17.8558 22.8859 18.1975L33.6884 29L22.8859 39.8025Z" fill="#141124"/>
</g>
<defs>
<clipPath id="clip0_3_199">
<rect width="58" height="58" fill="white"/>
</clipPath>
</defs>
</svg>
